<svg xmlns="http://www.w3.org/2000/svg" xmlns:xlink="http://www.w3.org/1999/xlink" xmlns:lucid="lucid" width="904" height="800"><g transform="translate(452 -60)" lucid:page-tab-id="0_0"><path d="M-400 80h200v40h-200z" stroke="#000" stroke-width="2" fill="#fff"/><use xlink:href="#a" transform="matrix(1,0,0,1,-395,85) translate(30.189453125 20.4580078125)"/><path d="M-400 120h200v160h-200z" stroke="#000" stroke-width="2" fill="#fff"/><use xlink:href="#b" transform="matrix(1,0,0,1,-395,125) translate(4.85 33.15)"/><use xlink:href="#c" transform="matrix(1,0,0,1,-395,125) translate(16 33.15)"/><use xlink:href="#d" transform="matrix(1,0,0,1,-395,125) translate(48.95 33.15)"/><use xlink:href="#e" transform="matrix(1,0,0,1,-395,125) translate(85.85 33.15)"/><use xlink:href="#f" transform="matrix(1,0,0,1,-395,125) translate(110.85 33.15)"/><use xlink:href="#g" transform="matrix(1,0,0,1,-395,125) translate(16 54.75)"/><use xlink:href="#h" transform="matrix(1,0,0,1,-395,125) translate(76.9 54.75)"/><use xlink:href="#b" transform="matrix(1,0,0,1,-395,125) translate(4.85 76.35000000000001)"/><use xlink:href="#i" transform="matrix(1,0,0,1,-395,125) translate(16 76.35000000000001)"/><use xlink:href="#j" transform="matrix(1,0,0,1,-395,125) translate(69.95 76.35000000000001)"/><use xlink:href="#k" transform="matrix(1,0,0,1,-395,125) translate(142.95 76.35000000000001)"/><use xlink:href="#d" transform="matrix(1,0,0,1,-395,125) translate(16 97.95000000000002)"/><use xlink:href="#l" transform="matrix(1,0,0,1,-395,125) translate(52.9 97.95000000000002)"/><use xlink:href="#m" transform="matrix(1,0,0,1,-395,125) translate(135.8 97.95000000000002)"/><use xlink:href="#n" transform="matrix(1,0,0,1,-395,125) translate(16 119.55000000000001)"/><use xlink:href="#o" transform="matrix(1,0,0,1,-395,125) translate(75.95 119.55000000000001)"/><path d="M-100 80h200v40h-200z" stroke="#000" stroke-width="2" fill="#fff"/><use xlink:href="#p" transform="matrix(1,0,0,1,-95,85) translate(35.59033203125 20.4580078125)"/><path d="M-100 120h200v160h-200z" stroke="#000" stroke-width="2" fill="#fff"/><use xlink:href="#b" transform="matrix(1,0,0,1,-95,125) translate(4.725 47.2125)"/><use xlink:href="#q" transform="matrix(1,0,0,1,-95,125) translate(15.75 47.2125)"/><use xlink:href="#d" transform="matrix(1,0,0,1,-95,125) translate(62.7 47.2125)"/><use xlink:href="#r" transform="matrix(1,0,0,1,-95,125) translate(99.6 47.2125)"/><use xlink:href="#g" transform="matrix(1,0,0,1,-95,125) translate(15.75 68.8125)"/><use xlink:href="#s" transform="matrix(1,0,0,1,-95,125) translate(76.65 68.8125)"/><use xlink:href="#t" transform="matrix(1,0,0,1,-95,125) translate(131.55 68.8125)"/><use xlink:href="#u" transform="matrix(1,0,0,1,-95,125) translate(15.75 90.41250000000001)"/><use xlink:href="#v" transform="matrix(1,0,0,1,-95,125) translate(63.7 90.41250000000001)"/><use xlink:href="#w" transform="matrix(1,0,0,1,-95,125) translate(90.6 90.41250000000001)"/><use xlink:href="#x" transform="matrix(1,0,0,1,-95,125) translate(133.6 90.41250000000001)"/><use xlink:href="#y" transform="matrix(1,0,0,1,-95,125) translate(15.75 112.01250000000002)"/><path d="M-400 360h200v40h-200z" stroke="#000" stroke-width="2" fill="#fff"/><use xlink:href="#z" transform="matrix(1,0,0,1,-395,365) translate(35.59033203125 20.4580078125)"/><path d="M-400 400h200v160h-200z" stroke="#000" stroke-width="2" fill="#fff"/><use xlink:href="#b" transform="matrix(1,0,0,1,-395,405) translate(4.725 47.2125)"/><use xlink:href="#A" transform="matrix(1,0,0,1,-395,405) translate(15.75 47.2125)"/><use xlink:href="#B" transform="matrix(1,0,0,1,-395,405) translate(62.25 47.2125)"/><use xlink:href="#C" transform="matrix(1,0,0,1,-395,405) translate(115.2 47.2125)"/><use xlink:href="#D" transform="matrix(1,0,0,1,-395,405) translate(15.75 68.8125)"/><use xlink:href="#E" transform="matrix(1,0,0,1,-395,405) translate(102.65 68.8125)"/><use xlink:href="#F" transform="matrix(1,0,0,1,-395,405) translate(15.75 90.41250000000001)"/><use xlink:href="#G" transform="matrix(1,0,0,1,-395,405) translate(56.65 90.41250000000001)"/><use xlink:href="#H" transform="matrix(1,0,0,1,-395,405) translate(15.75 112.01250000000002)"/><path d="M-100 360h200v40h-200z" stroke="#000" stroke-width="2" fill="#fff"/><use xlink:href="#I" transform="matrix(1,0,0,1,-95,365) translate(8.5859375 20.4580078125)"/><path d="M-100 400h200v160h-200z" stroke="#000" stroke-width="2" fill="#fff"/><use xlink:href="#b" transform="matrix(1,0,0,1,-95,405) translate(4.725 56.5875)"/><use xlink:href="#A" transform="matrix(1,0,0,1,-95,405) translate(15.75 56.5875)"/><use xlink:href="#J" transform="matrix(1,0,0,1,-95,405) translate(62.25 56.5875)"/><use xlink:href="#K" transform="matrix(1,0,0,1,-95,405) translate(97.25 56.5875)"/><use xlink:href="#L" transform="matrix(1,0,0,1,-95,405) translate(15.75 78.1875)"/><use xlink:href="#M" transform="matrix(1,0,0,1,-95,405) translate(63.7 78.1875)"/><use xlink:href="#N" transform="matrix(1,0,0,1,-95,405) translate(93.7 78.1875)"/><use xlink:href="#O" transform="matrix(1,0,0,1,-95,405) translate(15.75 99.78750000000001)"/><use xlink:href="#P" transform="matrix(1,0,0,1,-95,405) translate(88.65 99.78750000000001)"/><use xlink:href="#Q" transform="matrix(1,0,0,1,-95,405) translate(107.60000000000001 99.78750000000001)"/><path d="M200 360h200v40H200z" stroke="#000" stroke-width="2" fill="#fff"/><g><use xlink:href="#R" transform="matrix(1,0,0,1,205,365) translate(13.98681640625 20.4580078125)"/></g><path d="M200 400h200v160H200z" stroke="#000" stroke-width="2" fill="#fff"/><g><use xlink:href="#b" transform="matrix(1,0,0,1,205,405) translate(4.725 47.2125)"/><use xlink:href="#S" transform="matrix(1,0,0,1,205,405) translate(15.75 47.2125)"/><use xlink:href="#j" transform="matrix(1,0,0,1,205,405) translate(69.75 47.2125)"/><use xlink:href="#k" transform="matrix(1,0,0,1,205,405) translate(142.75 47.2125)"/><use xlink:href="#d" transform="matrix(1,0,0,1,205,405) translate(15.75 68.8125)"/><use xlink:href="#T" transform="matrix(1,0,0,1,205,405) translate(52.65 68.8125)"/><use xlink:href="#U" transform="matrix(1,0,0,1,205,405) translate(86.6 68.8125)"/><use xlink:href="#b" transform="matrix(1,0,0,1,205,405) translate(4.725 90.41250000000001)"/><use xlink:href="#V" transform="matrix(1,0,0,1,205,405) translate(15.75 90.41250000000001)"/><use xlink:href="#W" transform="matrix(1,0,0,1,205,405) translate(78.7 90.41250000000001)"/><use xlink:href="#X" transform="matrix(1,0,0,1,205,405) translate(15.75 112.01250000000002)"/></g><path d="M200 80h200v40H200z" stroke="#000" stroke-width="2" fill="#fff"/><g><use xlink:href="#Y" transform="matrix(1,0,0,1,205,85) translate(30.189453125 20.4580078125)"/></g><path d="M200 120h200v160H200z" stroke="#000" stroke-width="2" fill="#fff"/><g><use xlink:href="#b" transform="matrix(1,0,0,1,205,125) translate(4.725 56.5875)"/><use xlink:href="#V" transform="matrix(1,0,0,1,205,125) translate(15.75 56.5875)"/><use xlink:href="#Z" transform="matrix(1,0,0,1,205,125) translate(78.7 56.5875)"/><use xlink:href="#aa" transform="matrix(1,0,0,1,205,125) translate(15.75 78.1875)"/><use xlink:href="#ab" transform="matrix(1,0,0,1,205,125) translate(94.65 78.1875)"/><use xlink:href="#ac" transform="matrix(1,0,0,1,205,125) translate(114.65 78.1875)"/><use xlink:href="#ad" transform="matrix(1,0,0,1,205,125) translate(15.75 99.78750000000001)"/><use xlink:href="#ae" transform="matrix(1,0,0,1,205,125) translate(85.55000000000001 99.78750000000001)"/></g><path d="M-400 640h200v40h-200z" stroke="#000" stroke-width="2" fill="#fff"/><g><use xlink:href="#af" transform="matrix(1,0,0,1,-395,645) translate(8.5859375 20.4580078125)"/></g><path d="M-400 680h200v160h-200z" stroke="#000" stroke-width="2" fill="#fff"/><g><use xlink:href="#b" transform="matrix(1,0,0,1,-395,685) translate(4.725 23.775)"/><use xlink:href="#ag" transform="matrix(1,0,0,1,-395,685) translate(15.75 23.775)"/><use xlink:href="#j" transform="matrix(1,0,0,1,-395,685) translate(55.650000000000006 23.775)"/><use xlink:href="#ah" transform="matrix(1,0,0,1,-395,685) translate(128.65 23.775)"/><use xlink:href="#ai" transform="matrix(1,0,0,1,-395,685) translate(15.75 45.375)"/><use xlink:href="#P" transform="matrix(1,0,0,1,-395,685) translate(97.65 45.375)"/><use xlink:href="#f" transform="matrix(1,0,0,1,-395,685) translate(116.60000000000001 45.375)"/><use xlink:href="#U" transform="matrix(1,0,0,1,-395,685) translate(15.75 66.97500000000001)"/><use xlink:href="#b" transform="matrix(1,0,0,1,-395,685) translate(4.725 88.57500000000002)"/><use xlink:href="#aj" transform="matrix(1,0,0,1,-395,685) translate(15.75 88.57500000000002)"/><use xlink:href="#d" transform="matrix(1,0,0,1,-395,685) translate(64.7 88.57500000000002)"/><use xlink:href="#F" transform="matrix(1,0,0,1,-395,685) translate(101.6 88.57500000000002)"/><use xlink:href="#ac" transform="matrix(1,0,0,1,-395,685) translate(142.5 88.57500000000002)"/><use xlink:href="#ak" transform="matrix(1,0,0,1,-395,685) translate(15.75 110.17500000000001)"/><use xlink:href="#al" transform="matrix(1,0,0,1,-395,685) translate(89.6 110.17500000000001)"/><use xlink:href="#am" transform="matrix(1,0,0,1,-395,685) translate(109.6 110.17500000000001)"/><use xlink:href="#an" transform="matrix(1,0,0,1,-395,685) translate(15.75 131.775)"/></g><path d="M102 100h78.5" stroke="#000" stroke-width="2" fill="none"/><path d="M102.03 101H101v-2h1.03z"/><path d="M195.76 100l-14.26 4.64v-9.28z" stroke="#000" stroke-width="2"/><path d="M402 100h39v220h-882v60h21.5" stroke="#000" stroke-width="2" fill="none"/><path d="M402.03 101H401v-2h1.03z"/><path d="M-404.24 380l-14.26 4.64v-9.28z" stroke="#000" stroke-width="2"/><path d="M-198 380h78.5" stroke="#000" stroke-width="2" fill="none"/><path d="M-197.97 381H-199v-2h1.03z"/><path d="M-104.24 380l-14.26 4.64v-9.28z" stroke="#000" stroke-width="2"/><path d="M402 380h39v220h-881v60h20.5" stroke="#000" stroke-width="2" fill="none"/><path d="M402.03 381H401v-2h1.03z"/><path d="M-404.24 660l-14.26 4.64v-9.28z" stroke="#000" stroke-width="2"/><path d="M-198 100h78.5" stroke="#000" stroke-width="2" fill="none"/><path d="M-197.97 101H-199v-2h1.03z"/><path d="M-104.24 100l-14.26 4.64v-9.28z" stroke="#000" stroke-width="2"/><path d="M102 380h78.5" stroke="#000" stroke-width="2" fill="none"/><path d="M102.03 381H101v-2h1.03z"/><path d="M195.76 380l-14.26 4.64v-9.28z" stroke="#000" stroke-width="2"/><path d="M200 640h200v40H200z" stroke="#000" stroke-width="2" fill="#fff"/><g><use xlink:href="#ao" transform="matrix(1,0,0,1,205,645) translate(8.5859375 20.4580078125)"/></g><path d="M200 680h200v160H200z" stroke="#000" stroke-width="2" fill="#fff"/><g><use xlink:href="#b" transform="matrix(1,0,0,1,205,685) translate(4.725 23.775)"/><use xlink:href="#ag" transform="matrix(1,0,0,1,205,685) translate(15.75 23.775)"/><use xlink:href="#j" transform="matrix(1,0,0,1,205,685) translate(55.650000000000006 23.775)"/><use xlink:href="#ah" transform="matrix(1,0,0,1,205,685) translate(128.65 23.775)"/><use xlink:href="#ap" transform="matrix(1,0,0,1,205,685) translate(15.75 45.375)"/><use xlink:href="#P" transform="matrix(1,0,0,1,205,685) translate(117.65 45.375)"/><use xlink:href="#f" transform="matrix(1,0,0,1,205,685) translate(136.6 45.375)"/><use xlink:href="#U" transform="matrix(1,0,0,1,205,685) translate(15.75 66.97500000000001)"/><use xlink:href="#b" transform="matrix(1,0,0,1,205,685) translate(4.725 88.57500000000002)"/><use xlink:href="#aj" transform="matrix(1,0,0,1,205,685) translate(15.75 88.57500000000002)"/><use xlink:href="#d" transform="matrix(1,0,0,1,205,685) translate(64.7 88.57500000000002)"/><use xlink:href="#F" transform="matrix(1,0,0,1,205,685) translate(101.6 88.57500000000002)"/><use xlink:href="#am" transform="matrix(1,0,0,1,205,685) translate(142.5 88.57500000000002)"/><use xlink:href="#ak" transform="matrix(1,0,0,1,205,685) translate(15.75 110.17500000000001)"/><use xlink:href="#al" transform="matrix(1,0,0,1,205,685) translate(89.6 110.17500000000001)"/><use xlink:href="#aq" transform="matrix(1,0,0,1,205,685) translate(109.6 110.17500000000001)"/><use xlink:href="#an" transform="matrix(1,0,0,1,205,685) translate(15.75 131.775)"/></g><defs><path fill="#de5f85" d="M977 0v-707c0-97-9-165-27-203s-47-57-88-57c-58 0-100 28-126 83s-40 148-40 278V0H535v-707c0-173-42-260-125-260-56 0-96 26-120 79s-36 160-36 319V0H92v-1098h127l27 148h10c45-112 112-168 201-168 109 0 180 61 213 182h6c51-121 124-182 219-182 85 0 147 30 186 92s58 165 58 309V0H977" id="ar"/><path fill="#de5f85" d="M596-1118c288 2 430 92 430 366V0H895l-37-152h-8C752-34 680 17 483 20 272 23 135-98 135-307c0-221 170-337 510-348l203-7c15-197-55-305-244-305-98 0-207 27-328 82l-63-137c131-64 258-96 383-96zm-72 991c194 0 325-116 322-311v-99c-251 15-522-6-522 232 0 119 67 178 200 178" id="as"/><path fill="#de5f85" d="M1020-150v138C933 9 849 20 768 20 527 20 406-95 406-324v-637H139v-94l267-49 77-287h105v293h438v137H588v637c0 130 64 195 192 195 62 0 142-7 240-21" id="at"/><path fill="#de5f85" d="M172-543c0-365 197-575 553-575 119 0 231 20 336 59l-62 158c-100-38-189-57-268-57-247 0-371 138-371 413 0 271 120 406 361 406 105 0 212-21 321-62v160C953 0 843 20 713 20c-347 1-541-210-541-563" id="au"/><path fill="#de5f85" d="M887 0v-707c0-173-79-260-238-260-205 0-307 133-307 398V0H160v-1556h182c-2 202 6 416-8 606h10c69-112 181-168 336-168 259 0 389 134 389 401V0H887" id="av"/><path fill="#de5f85" d="M1243 324H-16V184h1259v140" id="aw"/><path fill="#de5f85" d="M442-897c93-139 173-221 377-221 79 0 159 15 240 45l-49 166c-82-30-157-45-224-45-221 0-340 134-340 360V0H264v-1098h148l22 201h8" id="ax"/><path fill="#de5f85" d="M631-1118c283 0 470 204 465 491v113H322c5 250 120 375 344 375 130 0 253-25 370-76v160C925-5 804 20 672 20c-329 0-539-224-539-561 0-331 182-577 498-577zM326-662h573c0-203-91-305-272-305-183 0-284 102-301 305" id="ay"/><path fill="#de5f85" d="M1112-551c0 331-186 571-502 571-301 0-495-251-495-571 0-330 184-567 501-567 302 0 496 249 496 567zM614-131c207 0 310-140 310-420 0-277-104-416-312-416-206 0-309 139-309 416 0 280 104 420 311 420" id="az"/><g id="a"><use transform="matrix(0.0087890625,0,0,0.0087890625,0,0)" xlink:href="#ar"/><use transform="matrix(0.0087890625,0,0,0.0087890625,10.8017578125,0)" xlink:href="#as"/><use transform="matrix(0.0087890625,0,0,0.0087890625,21.603515625,0)" xlink:href="#at"/><use transform="matrix(0.0087890625,0,0,0.0087890625,32.4052734375,0)" xlink:href="#au"/><use transform="matrix(0.0087890625,0,0,0.0087890625,43.20703125,0)" xlink:href="#av"/><use transform="matrix(0.0087890625,0,0,0.0087890625,54.0087890625,0)" xlink:href="#aw"/><use transform="matrix(0.0087890625,0,0,0.0087890625,64.810546875,0)" xlink:href="#ax"/><use transform="matrix(0.0087890625,0,0,0.0087890625,75.6123046875,0)" xlink:href="#ay"/><use transform="matrix(0.0087890625,0,0,0.0087890625,86.4140625,0)" xlink:href="#ar"/><use transform="matrix(0.0087890625,0,0,0.0087890625,97.2158203125,0)" xlink:href="#az"/><use transform="matrix(0.0087890625,0,0,0.0087890625,108.017578125,0)" xlink:href="#at"/><use transform="matrix(0.0087890625,0,0,0.0087890625,118.8193359375,0)" xlink:href="#ay"/></g><path d="M62-168c30 0 50 19 50 48S92-70 62-70c-29 0-48-21-48-50s20-48 48-48" id="aA"/><use transform="matrix(0.05,0,0,0.05,0,0)" xlink:href="#aA" id="b"/><path d="M30 0v-248h33v221h125V0H30" id="aB"/><path d="M24-231v-30h32v30H24zM24 0v-190h32V0H24" id="aC"/><path d="M135-143c-3-34-86-38-87 0 15 53 115 12 119 90S17 21 10-45l28-5c4 36 97 45 98 0-10-56-113-15-118-90-4-57 82-63 122-42 12 7 21 19 24 35" id="aD"/><path d="M59-47c-2 24 18 29 38 22v24C64 9 27 4 27-40v-127H5v-23h24l9-43h21v43h35v23H59v120" id="aE"/><g id="c"><use transform="matrix(0.05,0,0,0.05,0,0)" xlink:href="#aB"/><use transform="matrix(0.05,0,0,0.05,10,0)" xlink:href="#aC"/><use transform="matrix(0.05,0,0,0.05,13.949999999999998,0)" xlink:href="#aD"/><use transform="matrix(0.05,0,0,0.05,22.95,0)" xlink:href="#aE"/></g><path d="M101-234c-31-9-42 10-38 44h38v23H63V0H32v-167H5v-23h27c-7-52 17-82 69-68v24" id="aF"/><path d="M24 0v-261h32V0H24" id="aG"/><path d="M100-194c63 0 86 42 84 106H49c0 40 14 67 53 68 26 1 43-12 49-29l28 8c-11 28-37 45-77 45C44 4 14-33 15-96c1-61 26-98 85-98zm52 81c6-60-76-77-97-28-3 7-6 17-6 28h103" id="aH"/><g id="d"><use transform="matrix(0.05,0,0,0.05,0,0)" xlink:href="#aF"/><use transform="matrix(0.05,0,0,0.05,5,0)" xlink:href="#aC"/><use transform="matrix(0.05,0,0,0.05,8.95,0)" xlink:href="#aG"/><use transform="matrix(0.05,0,0,0.05,12.899999999999999,0)" xlink:href="#aH"/><use transform="matrix(0.05,0,0,0.05,22.9,0)" xlink:href="#aD"/></g><path d="M100-194c62-1 85 37 85 99 1 63-27 99-86 99S16-35 15-95c0-66 28-99 85-99zM99-20c44 1 53-31 53-75 0-43-8-75-51-75s-53 32-53 75 10 74 51 75" id="aI"/><path d="M117-194c89-4 53 116 60 194h-32v-121c0-31-8-49-39-48C34-167 62-67 57 0H25l-1-190h30c1 10-1 24 2 32 11-22 29-35 61-36" id="aJ"/><g id="e"><use transform="matrix(0.05,0,0,0.05,0,0)" xlink:href="#aI"/><use transform="matrix(0.05,0,0,0.05,10,0)" xlink:href="#aJ"/></g><path d="M106-169C34-169 62-67 57 0H25v-261h32l-1 103c12-21 28-36 61-36 89 0 53 116 60 194h-32v-121c2-32-8-49-39-48" id="aK"/><g id="f"><use transform="matrix(0.05,0,0,0.05,0,0)" xlink:href="#aE"/><use transform="matrix(0.05,0,0,0.05,5,0)" xlink:href="#aK"/><use transform="matrix(0.05,0,0,0.05,15,0)" xlink:href="#aH"/></g><path d="M114-163C36-179 61-72 57 0H25l-1-190h30c1 12-1 29 2 39 6-27 23-49 58-41v29" id="aL"/><path d="M210-169c-67 3-38 105-44 169h-31v-121c0-29-5-50-35-48C34-165 62-65 56 0H25l-1-190h30c1 10-1 24 2 32 10-44 99-50 107 0 11-21 27-35 58-36 85-2 47 119 55 194h-31v-121c0-29-5-49-35-48" id="aM"/><g id="g"><use transform="matrix(0.05,0,0,0.05,0,0)" xlink:href="#aL"/><use transform="matrix(0.05,0,0,0.05,5.95,0)" xlink:href="#aH"/><use transform="matrix(0.05,0,0,0.05,15.949999999999998,0)" xlink:href="#aM"/><use transform="matrix(0.05,0,0,0.05,30.899999999999995,0)" xlink:href="#aI"/><use transform="matrix(0.05,0,0,0.05,40.9,0)" xlink:href="#aE"/><use transform="matrix(0.05,0,0,0.05,45.9,0)" xlink:href="#aH"/></g><path d="M108 0H70L1-190h34L89-25l56-165h34" id="aN"/><g id="h"><use transform="matrix(0.05,0,0,0.05,0,0)" xlink:href="#aD"/><use transform="matrix(0.05,0,0,0.05,9,0)" xlink:href="#aH"/><use transform="matrix(0.05,0,0,0.05,19,0)" xlink:href="#aL"/><use transform="matrix(0.05,0,0,0.05,24.95,0)" xlink:href="#aN"/><use transform="matrix(0.05,0,0,0.05,33.95,0)" xlink:href="#aH"/><use transform="matrix(0.05,0,0,0.05,43.95,0)" xlink:href="#aL"/></g><path d="M240 0l2-218c-23 76-54 145-80 218h-23L58-218 59 0H30v-248h44l77 211c21-75 51-140 76-211h43V0h-30" id="aO"/><path d="M141-36C126-15 110 5 73 4 37 3 15-17 15-53c-1-64 63-63 125-63 3-35-9-54-41-54-24 1-41 7-42 31l-33-3c5-37 33-52 76-52 45 0 72 20 72 64v82c-1 20 7 32 28 27v20c-31 9-61-2-59-35zM48-53c0 20 12 33 32 33 41-3 63-29 60-74-43 2-92-5-92 41" id="aP"/><path d="M96-169c-40 0-48 33-48 73s9 75 48 75c24 0 41-14 43-38l32 2c-6 37-31 61-74 61-59 0-76-41-82-99-10-93 101-131 147-64 4 7 5 14 7 22l-32 3c-4-21-16-35-41-35" id="aQ"/><g id="i"><use transform="matrix(0.05,0,0,0.05,0,0)" xlink:href="#aO"/><use transform="matrix(0.05,0,0,0.05,14.950000000000001,0)" xlink:href="#aP"/><use transform="matrix(0.05,0,0,0.05,24.950000000000003,0)" xlink:href="#aE"/><use transform="matrix(0.05,0,0,0.05,29.950000000000003,0)" xlink:href="#aQ"/><use transform="matrix(0.05,0,0,0.05,38.95,0)" xlink:href="#aK"/></g><path d="M85-194c31 0 48 13 60 33l-1-100h32l1 261h-30c-2-10 0-23-3-31C134-8 116 4 85 4 32 4 16-35 15-94c0-66 23-100 70-100zm9 24c-40 0-46 34-46 75 0 40 6 74 45 74 42 0 51-32 51-76 0-42-9-74-50-73" id="aR"/><g id="j"><use transform="matrix(0.05,0,0,0.05,0,0)" xlink:href="#aR"/><use transform="matrix(0.05,0,0,0.05,10,0)" xlink:href="#aP"/><use transform="matrix(0.05,0,0,0.05,20,0)" xlink:href="#aE"/><use transform="matrix(0.05,0,0,0.05,25,0)" xlink:href="#aP"/><use transform="matrix(0.05,0,0,0.05,35,0)" xlink:href="#aD"/><use transform="matrix(0.05,0,0,0.05,44,0)" xlink:href="#aH"/><use transform="matrix(0.05,0,0,0.05,54,0)" xlink:href="#aE"/><use transform="matrix(0.05,0,0,0.05,59,0)" xlink:href="#aD"/></g><g id="k"><use transform="matrix(0.05,0,0,0.05,0,0)" xlink:href="#aP"/><use transform="matrix(0.05,0,0,0.05,10,0)" xlink:href="#aJ"/><use transform="matrix(0.05,0,0,0.05,20,0)" xlink:href="#aR"/></g><path d="M177-190C167-65 218 103 67 71c-23-6-38-20-44-43l32-5c15 47 100 32 89-28v-30C133-14 115 1 83 1 29 1 15-40 15-95c0-56 16-97 71-98 29-1 48 16 59 35 1-10 0-23 2-32h30zM94-22c36 0 50-32 50-73 0-42-14-75-50-75-39 0-46 34-46 75s6 73 46 73" id="aS"/><g id="l"><use transform="matrix(0.05,0,0,0.05,0,0)" xlink:href="#aP"/><use transform="matrix(0.05,0,0,0.05,10,0)" xlink:href="#aQ"/><use transform="matrix(0.05,0,0,0.05,19,0)" xlink:href="#aQ"/><use transform="matrix(0.05,0,0,0.05,28,0)" xlink:href="#aI"/><use transform="matrix(0.05,0,0,0.05,38,0)" xlink:href="#aL"/><use transform="matrix(0.05,0,0,0.05,43.95,0)" xlink:href="#aR"/><use transform="matrix(0.05,0,0,0.05,53.95,0)" xlink:href="#aC"/><use transform="matrix(0.05,0,0,0.05,57.900000000000006,0)" xlink:href="#aJ"/><use transform="matrix(0.05,0,0,0.05,67.9,0)" xlink:href="#aS"/></g><g id="m"><use transform="matrix(0.05,0,0,0.05,0,0)" xlink:href="#aE"/><use transform="matrix(0.05,0,0,0.05,5,0)" xlink:href="#aI"/></g><path d="M141 0L90-78 38 0H4l68-98-65-92h35l48 74 47-74h35l-64 92 68 98h-35" id="aT"/><path d="M115-194c55 1 70 41 70 98S169 2 115 4C84 4 66-9 55-30l1 105H24l-1-265h31l2 30c10-21 28-34 59-34zm-8 174c40 0 45-34 45-75s-6-73-45-74c-42 0-51 32-51 76 0 43 10 73 51 73" id="aU"/><g id="n"><use transform="matrix(0.05,0,0,0.05,0,0)" xlink:href="#aL"/><use transform="matrix(0.05,0,0,0.05,5.95,0)" xlink:href="#aH"/><use transform="matrix(0.05,0,0,0.05,15.949999999999998,0)" xlink:href="#aS"/><use transform="matrix(0.05,0,0,0.05,25.950000000000003,0)" xlink:href="#aH"/><use transform="matrix(0.05,0,0,0.05,35.95,0)" xlink:href="#aT"/><use transform="matrix(0.05,0,0,0.05,44.95,0)" xlink:href="#aU"/></g><g id="o"><use transform="matrix(0.05,0,0,0.05,0,0)" xlink:href="#aU"/><use transform="matrix(0.05,0,0,0.05,10,0)" xlink:href="#aP"/><use transform="matrix(0.05,0,0,0.05,20,0)" xlink:href="#aE"/><use transform="matrix(0.05,0,0,0.05,25,0)" xlink:href="#aE"/><use transform="matrix(0.05,0,0,0.05,30,0)" xlink:href="#aH"/><use transform="matrix(0.05,0,0,0.05,40,0)" xlink:href="#aL"/><use transform="matrix(0.05,0,0,0.05,45.95,0)" xlink:href="#aJ"/></g><path fill="#de5f85" d="M866-1417c-164 2-207 56-211 215v104h389v137H655V0H473v-961H156v-110l317-33c-17-319 78-463 389-463 86 0 170 12 252 35l-41 143c-69-19-138-28-207-28" id="aV"/><path fill="#de5f85" d="M739-1436c0 71-43 115-106 115-71 0-107-38-107-115 0-76 36-114 107-114s106 38 106 114zM541-954l-269-21v-123h451v955l352 20V0H197v-123l344-20v-811" id="aW"/><path fill="#de5f85" d="M532-1413l-268-21v-122h451v1413l352 20V0H188v-123l344-20v-1270" id="aX"/><path fill="#de5f85" d="M1026-301c0 225-197 321-448 321-165 0-290-23-375-69v-166c129 57 252 86 370 86 183 0 275-54 275-162 0-38-16-71-49-99s-108-63-226-106c-156-57-253-112-293-160s-61-105-61-171c2-338 524-340 789-217l-60 149c-121-48-228-72-319-72-157 0-236 44-236 133 0 41 17 74 51 98s111 57 232 101c141 51 234 101 280 151s70 111 70 183" id="aY"/><g id="p"><use transform="matrix(0.0087890625,0,0,0.0087890625,0,0)" xlink:href="#aV"/><use transform="matrix(0.0087890625,0,0,0.0087890625,10.8017578125,0)" xlink:href="#ay"/><use transform="matrix(0.0087890625,0,0,0.0087890625,21.603515625,0)" xlink:href="#at"/><use transform="matrix(0.0087890625,0,0,0.0087890625,32.4052734375,0)" xlink:href="#au"/><use transform="matrix(0.0087890625,0,0,0.0087890625,43.20703125,0)" xlink:href="#av"/><use transform="matrix(0.0087890625,0,0,0.0087890625,54.0087890625,0)" xlink:href="#aw"/><use transform="matrix(0.0087890625,0,0,0.0087890625,64.810546875,0)" xlink:href="#aV"/><use transform="matrix(0.0087890625,0,0,0.0087890625,75.6123046875,0)" xlink:href="#aW"/><use transform="matrix(0.0087890625,0,0,0.0087890625,86.4140625,0)" xlink:href="#aX"/><use transform="matrix(0.0087890625,0,0,0.0087890625,97.2158203125,0)" xlink:href="#ay"/><use transform="matrix(0.0087890625,0,0,0.0087890625,108.017578125,0)" xlink:href="#aY"/></g><path d="M212-179c-10-28-35-45-73-45-59 0-87 40-87 99 0 60 29 101 89 101 43 0 62-24 78-52l27 14C228-24 195 4 139 4 59 4 22-46 18-125c-6-104 99-153 187-111 19 9 31 26 39 46" id="aZ"/><path d="M179-190L93 31C79 59 56 82 12 73V49c39 6 53-20 64-50L1-190h34L92-34l54-156h33" id="ba"/><g id="q"><use transform="matrix(0.05,0,0,0.05,0,0)" xlink:href="#aZ"/><use transform="matrix(0.05,0,0,0.05,12.950000000000001,0)" xlink:href="#aI"/><use transform="matrix(0.05,0,0,0.05,22.950000000000003,0)" xlink:href="#aU"/><use transform="matrix(0.05,0,0,0.05,32.95,0)" xlink:href="#ba"/></g><g id="r"><use transform="matrix(0.05,0,0,0.05,0,0)" xlink:href="#aF"/><use transform="matrix(0.05,0,0,0.05,5,0)" xlink:href="#aL"/><use transform="matrix(0.05,0,0,0.05,10.95,0)" xlink:href="#aI"/><use transform="matrix(0.05,0,0,0.05,20.95,0)" xlink:href="#aM"/></g><g id="s"><use transform="matrix(0.05,0,0,0.05,0,0)" xlink:href="#aD"/><use transform="matrix(0.05,0,0,0.05,9,0)" xlink:href="#aH"/><use transform="matrix(0.05,0,0,0.05,19,0)" xlink:href="#aL"/><use transform="matrix(0.05,0,0,0.05,24.95,0)" xlink:href="#aN"/><use transform="matrix(0.05,0,0,0.05,33.95,0)" xlink:href="#aH"/><use transform="matrix(0.05,0,0,0.05,43.95,0)" xlink:href="#aL"/></g><path d="M84 4C-5 8 30-112 23-190h32v120c0 31 7 50 39 49 72-2 45-101 50-169h31l1 190h-30c-1-10 1-25-2-33-11 22-28 36-60 37" id="bb"/><g id="t"><use transform="matrix(0.05,0,0,0.05,0,0)" xlink:href="#bb"/><use transform="matrix(0.05,0,0,0.05,10,0)" xlink:href="#aD"/><use transform="matrix(0.05,0,0,0.05,19,0)" xlink:href="#aC"/><use transform="matrix(0.05,0,0,0.05,22.95,0)" xlink:href="#aJ"/><use transform="matrix(0.05,0,0,0.05,32.95,0)" xlink:href="#aS"/></g><g id="u"><use transform="matrix(0.05,0,0,0.05,0,0)" xlink:href="#aL"/><use transform="matrix(0.05,0,0,0.05,5.95,0)" xlink:href="#aD"/><use transform="matrix(0.05,0,0,0.05,14.949999999999998,0)" xlink:href="#ba"/><use transform="matrix(0.05,0,0,0.05,23.95,0)" xlink:href="#aJ"/><use transform="matrix(0.05,0,0,0.05,33.95,0)" xlink:href="#aQ"/></g><path d="M87 75C49 33 22-17 22-94c0-76 28-126 65-167h31c-38 41-64 92-64 168S80 34 118 75H87" id="bc"/><g id="v"><use transform="matrix(0.05,0,0,0.05,0,0)" xlink:href="#bc"/><use transform="matrix(0.05,0,0,0.05,5.95,0)" xlink:href="#aI"/><use transform="matrix(0.05,0,0,0.05,15.949999999999998,0)" xlink:href="#aL"/></g><g id="w"><use transform="matrix(0.05,0,0,0.05,0,0)" xlink:href="#aQ"/><use transform="matrix(0.05,0,0,0.05,9,0)" xlink:href="#aI"/><use transform="matrix(0.05,0,0,0.05,19,0)" xlink:href="#aU"/><use transform="matrix(0.05,0,0,0.05,29,0)" xlink:href="#ba"/></g><path d="M143 0L79-87 56-68V0H24v-261h32v163l83-92h37l-77 82L181 0h-38" id="bd"/><g id="x"><use transform="matrix(0.05,0,0,0.05,0,0)" xlink:href="#aM"/><use transform="matrix(0.05,0,0,0.05,14.950000000000001,0)" xlink:href="#aI"/><use transform="matrix(0.05,0,0,0.05,24.950000000000003,0)" xlink:href="#aQ"/><use transform="matrix(0.05,0,0,0.05,33.95,0)" xlink:href="#bd"/></g><path d="M33-261c38 41 65 92 65 168S71 34 33 75H2C39 34 66-17 66-93S39-220 2-261h31" id="be"/><g id="y"><use transform="matrix(0.05,0,0,0.05,0,0)" xlink:href="#aF"/><use transform="matrix(0.05,0,0,0.05,5,0)" xlink:href="#aC"/><use transform="matrix(0.05,0,0,0.05,8.95,0)" xlink:href="#aG"/><use transform="matrix(0.05,0,0,0.05,12.899999999999999,0)" xlink:href="#aH"/><use transform="matrix(0.05,0,0,0.05,22.9,0)" xlink:href="#aD"/><use transform="matrix(0.05,0,0,0.05,31.899999999999995,0)" xlink:href="#be"/></g><path fill="#de5f85" d="M813 0c-67-308-137-613-199-926h-6C551-608 477-306 408 0H219L-4-1098h162c53 313 118 604 155 936h6c53-329 132-625 201-936h193c63 300 147 629 194 936h6c45-366 103-603 162-936h158L1008 0H813" id="bf"/><path fill="#de5f85" d="M743-1550c71 0 107 38 107 114 0 77-36 115-107 115s-106-38-106-115c0-76 35-114 106-114zM854 117c0 250-172 375-432 375-109 0-205-12-287-35V303c89 26 186 39 289 39 147 0 248-74 248-215V-954l-420-21v-123h602V117" id="bg"/><path fill="#de5f85" d="M887 0v-707c0-173-79-260-238-260-205 0-307 133-307 398V0H160v-1098h147l27 148h10c69-112 181-168 336-168 259 0 389 134 389 401V0H887" id="bh"/><g id="z"><use transform="matrix(0.0087890625,0,0,0.0087890625,0,0)" xlink:href="#bf"/><use transform="matrix(0.0087890625,0,0,0.0087890625,10.8017578125,0)" xlink:href="#ax"/><use transform="matrix(0.0087890625,0,0,0.0087890625,21.603515625,0)" xlink:href="#aW"/><use transform="matrix(0.0087890625,0,0,0.0087890625,32.4052734375,0)" xlink:href="#at"/><use transform="matrix(0.0087890625,0,0,0.0087890625,43.20703125,0)" xlink:href="#ay"/><use transform="matrix(0.0087890625,0,0,0.0087890625,54.0087890625,0)" xlink:href="#aw"/><use transform="matrix(0.0087890625,0,0,0.0087890625,64.810546875,0)" xlink:href="#bg"/><use transform="matrix(0.0087890625,0,0,0.0087890625,75.6123046875,0)" xlink:href="#aY"/><use transform="matrix(0.0087890625,0,0,0.0087890625,86.4140625,0)" xlink:href="#az"/><use transform="matrix(0.0087890625,0,0,0.0087890625,97.2158203125,0)" xlink:href="#bh"/><use transform="matrix(0.0087890625,0,0,0.0087890625,108.017578125,0)" xlink:href="#aY"/></g><path d="M266 0h-40l-56-210L115 0H75L2-248h35L96-30l15-64 43-154h32l59 218 59-218h35" id="bi"/><g id="A"><use transform="matrix(0.05,0,0,0.05,0,0)" xlink:href="#bi"/><use transform="matrix(0.05,0,0,0.05,16.599999999999998,0)" xlink:href="#aL"/><use transform="matrix(0.05,0,0,0.05,22.549999999999997,0)" xlink:href="#aC"/><use transform="matrix(0.05,0,0,0.05,26.499999999999996,0)" xlink:href="#aE"/><use transform="matrix(0.05,0,0,0.05,31.499999999999996,0)" xlink:href="#aH"/></g><path d="M153-248C145-148 188 4 80 4 36 3 13-21 6-62l32-5c4 25 16 42 43 43 27 0 39-20 39-49v-147H72v-28h81" id="bj"/><path d="M185-189c-5-48-123-54-124 2 14 75 158 14 163 119 3 78-121 87-175 55-17-10-28-26-33-46l33-7c5 56 141 63 141-1 0-78-155-14-162-118-5-82 145-84 179-34 5 7 8 16 11 25" id="bk"/><path d="M140-251c81 0 123 46 123 126C263-46 219 4 140 4 59 4 17-45 17-125s42-126 123-126zm0 227c63 0 89-41 89-101s-29-99-89-99c-61 0-89 39-89 99S79-25 140-24" id="bl"/><path d="M190 0L58-211 59 0H30v-248h39L202-35l-2-213h31V0h-41" id="bm"/><g id="B"><use transform="matrix(0.05,0,0,0.05,0,0)" xlink:href="#bj"/><use transform="matrix(0.05,0,0,0.05,9,0)" xlink:href="#bk"/><use transform="matrix(0.05,0,0,0.05,21,0)" xlink:href="#bl"/><use transform="matrix(0.05,0,0,0.05,35,0)" xlink:href="#bm"/></g><g id="C"><use transform="matrix(0.05,0,0,0.05,0,0)" xlink:href="#aF"/><use transform="matrix(0.05,0,0,0.05,5,0)" xlink:href="#aC"/><use transform="matrix(0.05,0,0,0.05,8.95,0)" xlink:href="#aG"/><use transform="matrix(0.05,0,0,0.05,12.899999999999999,0)" xlink:href="#aH"/><use transform="matrix(0.05,0,0,0.05,22.9,0)" xlink:href="#aD"/></g><g id="D"><use transform="matrix(0.05,0,0,0.05,0,0)" xlink:href="#aQ"/><use transform="matrix(0.05,0,0,0.05,9,0)" xlink:href="#aI"/><use transform="matrix(0.05,0,0,0.05,19,0)" xlink:href="#aJ"/><use transform="matrix(0.05,0,0,0.05,29,0)" xlink:href="#aE"/><use transform="matrix(0.05,0,0,0.05,34,0)" xlink:href="#aP"/><use transform="matrix(0.05,0,0,0.05,44,0)" xlink:href="#aC"/><use transform="matrix(0.05,0,0,0.05,47.95,0)" xlink:href="#aJ"/><use transform="matrix(0.05,0,0,0.05,57.95,0)" xlink:href="#aC"/><use transform="matrix(0.05,0,0,0.05,61.900000000000006,0)" xlink:href="#aJ"/><use transform="matrix(0.05,0,0,0.05,71.9,0)" xlink:href="#aS"/></g><path d="M115-194c53 0 69 39 70 98 0 66-23 100-70 100C84 3 66-7 56-30L54 0H23l1-261h32v101c10-23 28-34 59-34zm-8 174c40 0 45-34 45-75 0-40-5-75-45-74-42 0-51 32-51 76 0 43 10 73 51 73" id="bn"/><g id="E"><use transform="matrix(0.05,0,0,0.05,0,0)" xlink:href="#aP"/><use transform="matrix(0.05,0,0,0.05,10,0)" xlink:href="#aE"/><use transform="matrix(0.05,0,0,0.05,15,0)" xlink:href="#aE"/><use transform="matrix(0.05,0,0,0.05,20,0)" xlink:href="#aL"/><use transform="matrix(0.05,0,0,0.05,25.950000000000003,0)" xlink:href="#aC"/><use transform="matrix(0.05,0,0,0.05,29.899999999999995,0)" xlink:href="#bn"/><use transform="matrix(0.05,0,0,0.05,39.9,0)" xlink:href="#bb"/><use transform="matrix(0.05,0,0,0.05,49.9,0)" xlink:href="#aE"/><use transform="matrix(0.05,0,0,0.05,54.900000000000006,0)" xlink:href="#aH"/><use transform="matrix(0.05,0,0,0.05,64.9,0)" xlink:href="#aD"/></g><g id="F"><use transform="matrix(0.05,0,0,0.05,0,0)" xlink:href="#aF"/><use transform="matrix(0.05,0,0,0.05,5,0)" xlink:href="#aL"/><use transform="matrix(0.05,0,0,0.05,10.95,0)" xlink:href="#aI"/><use transform="matrix(0.05,0,0,0.05,20.95,0)" xlink:href="#aM"/></g><g id="G"><use transform="matrix(0.05,0,0,0.05,0,0)" xlink:href="#aF"/><use transform="matrix(0.05,0,0,0.05,5,0)" xlink:href="#aC"/><use transform="matrix(0.05,0,0,0.05,8.95,0)" xlink:href="#aG"/><use transform="matrix(0.05,0,0,0.05,12.899999999999999,0)" xlink:href="#aH"/><use transform="matrix(0.05,0,0,0.05,22.9,0)" xlink:href="#aJ"/><use transform="matrix(0.05,0,0,0.05,32.9,0)" xlink:href="#aP"/><use transform="matrix(0.05,0,0,0.05,42.9,0)" xlink:href="#aM"/><use transform="matrix(0.05,0,0,0.05,57.85,0)" xlink:href="#aH"/></g><g id="H"><use transform="matrix(0.05,0,0,0.05,0,0)" xlink:href="#aC"/><use transform="matrix(0.05,0,0,0.05,3.95,0)" xlink:href="#aR"/><use transform="matrix(0.05,0,0,0.05,13.949999999999998,0)" xlink:href="#aH"/><use transform="matrix(0.05,0,0,0.05,23.95,0)" xlink:href="#aJ"/><use transform="matrix(0.05,0,0,0.05,33.95,0)" xlink:href="#aE"/><use transform="matrix(0.05,0,0,0.05,38.95,0)" xlink:href="#aC"/><use transform="matrix(0.05,0,0,0.05,42.900000000000006,0)" xlink:href="#aF"/><use transform="matrix(0.05,0,0,0.05,47.900000000000006,0)" xlink:href="#aC"/><use transform="matrix(0.05,0,0,0.05,51.85,0)" xlink:href="#aH"/><use transform="matrix(0.05,0,0,0.05,61.85,0)" xlink:href="#aL"/><use transform="matrix(0.05,0,0,0.05,67.80000000000001,0)" xlink:href="#aD"/></g><path fill="#de5f85" d="M578-131c239 0 309-137 309-397v-570h182V0H922l-27-147h-10C815-36 704 20 551 20c-261 0-391-134-391-401v-717h182v707c0 173 79 260 236 260" id="bo"/><path fill="#de5f85" d="M1092-551c0 322-136 571-430 571-138 0-245-53-322-159h-12L291 0H158v-1556h182c-2 221 6 379-8 602h8c71-109 179-164 322-164 294 0 430 246 430 567zM629-967c-241 0-289 146-289 416 0 151 24 259 70 323s120 97 221 97c181 0 272-141 272-422 0-276-91-414-274-414" id="bp"/><g id="I"><use transform="matrix(0.0087890625,0,0,0.0087890625,0,0)" xlink:href="#bf"/><use transform="matrix(0.0087890625,0,0,0.0087890625,10.8017578125,0)" xlink:href="#ax"/><use transform="matrix(0.0087890625,0,0,0.0087890625,21.603515625,0)" xlink:href="#aW"/><use transform="matrix(0.0087890625,0,0,0.0087890625,32.4052734375,0)" xlink:href="#at"/><use transform="matrix(0.0087890625,0,0,0.0087890625,43.20703125,0)" xlink:href="#ay"/><use transform="matrix(0.0087890625,0,0,0.0087890625,54.0087890625,0)" xlink:href="#aw"/><use transform="matrix(0.0087890625,0,0,0.0087890625,64.810546875,0)" xlink:href="#at"/><use transform="matrix(0.0087890625,0,0,0.0087890625,75.6123046875,0)" xlink:href="#av"/><use transform="matrix(0.0087890625,0,0,0.0087890625,86.4140625,0)" xlink:href="#bo"/><use transform="matrix(0.0087890625,0,0,0.0087890625,97.2158203125,0)" xlink:href="#ar"/><use transform="matrix(0.0087890625,0,0,0.0087890625,108.017578125,0)" xlink:href="#bp"/><use transform="matrix(0.0087890625,0,0,0.0087890625,118.8193359375,0)" xlink:href="#bh"/><use transform="matrix(0.0087890625,0,0,0.0087890625,129.62109375,0)" xlink:href="#as"/><use transform="matrix(0.0087890625,0,0,0.0087890625,140.4228515625,0)" xlink:href="#aW"/><use transform="matrix(0.0087890625,0,0,0.0087890625,151.224609375,0)" xlink:href="#aX"/><use transform="matrix(0.0087890625,0,0,0.0087890625,162.0263671875,0)" xlink:href="#aY"/></g><g id="J"><use transform="matrix(0.05,0,0,0.05,0,0)" xlink:href="#aU"/><use transform="matrix(0.05,0,0,0.05,10,0)" xlink:href="#aJ"/><use transform="matrix(0.05,0,0,0.05,20,0)" xlink:href="#aS"/></g><g id="K"><use transform="matrix(0.05,0,0,0.05,0,0)" xlink:href="#aE"/><use transform="matrix(0.05,0,0,0.05,5,0)" xlink:href="#aK"/><use transform="matrix(0.05,0,0,0.05,15,0)" xlink:href="#bb"/><use transform="matrix(0.05,0,0,0.05,25,0)" xlink:href="#aM"/><use transform="matrix(0.05,0,0,0.05,39.95,0)" xlink:href="#bn"/><use transform="matrix(0.05,0,0,0.05,49.95,0)" xlink:href="#aJ"/><use transform="matrix(0.05,0,0,0.05,59.95,0)" xlink:href="#aP"/><use transform="matrix(0.05,0,0,0.05,69.95,0)" xlink:href="#aC"/><use transform="matrix(0.05,0,0,0.05,73.9,0)" xlink:href="#aG"/></g><g id="L"><use transform="matrix(0.05,0,0,0.05,0,0)" xlink:href="#bb"/><use transform="matrix(0.05,0,0,0.05,10,0)" xlink:href="#aD"/><use transform="matrix(0.05,0,0,0.05,19,0)" xlink:href="#aC"/><use transform="matrix(0.05,0,0,0.05,22.95,0)" xlink:href="#aJ"/><use transform="matrix(0.05,0,0,0.05,32.95,0)" xlink:href="#aS"/></g><g id="M"><use transform="matrix(0.05,0,0,0.05,0,0)" xlink:href="#aE"/><use transform="matrix(0.05,0,0,0.05,5,0)" xlink:href="#aK"/><use transform="matrix(0.05,0,0,0.05,15,0)" xlink:href="#aH"/></g><g id="N"><use transform="matrix(0.05,0,0,0.05,0,0)" xlink:href="#aF"/><use transform="matrix(0.05,0,0,0.05,5,0)" xlink:href="#aC"/><use transform="matrix(0.05,0,0,0.05,8.95,0)" xlink:href="#aL"/><use transform="matrix(0.05,0,0,0.05,14.899999999999999,0)" xlink:href="#aD"/><use transform="matrix(0.05,0,0,0.05,23.9,0)" xlink:href="#aE"/></g><g id="O"><use transform="matrix(0.05,0,0,0.05,0,0)" xlink:href="#aE"/><use transform="matrix(0.05,0,0,0.05,5,0)" xlink:href="#aC"/><use transform="matrix(0.05,0,0,0.05,8.95,0)" xlink:href="#aM"/><use transform="matrix(0.05,0,0,0.05,23.9,0)" xlink:href="#aH"/><use transform="matrix(0.05,0,0,0.05,33.9,0)" xlink:href="#aD"/><use transform="matrix(0.05,0,0,0.05,42.9,0)" xlink:href="#aE"/><use transform="matrix(0.05,0,0,0.05,47.9,0)" xlink:href="#aH"/><use transform="matrix(0.05,0,0,0.05,57.900000000000006,0)" xlink:href="#aU"/></g><g id="P"><use transform="matrix(0.05,0,0,0.05,0,0)" xlink:href="#aC"/><use transform="matrix(0.05,0,0,0.05,3.95,0)" xlink:href="#aJ"/></g><g id="Q"><use transform="matrix(0.05,0,0,0.05,0,0)" xlink:href="#aF"/><use transform="matrix(0.05,0,0,0.05,5,0)" xlink:href="#aC"/><use transform="matrix(0.05,0,0,0.05,8.95,0)" xlink:href="#aG"/><use transform="matrix(0.05,0,0,0.05,12.899999999999999,0)" xlink:href="#aH"/></g><path fill="#de5f85" d="M188-739c-1-248 156-381 410-379 57 0 107 7 150 20h378v113l-196 27c43 57 65 128 65 213 2 253-212 385-489 346-67 37-100 82-100 133 0 56 54 84 161 84h187c216-2 358 93 358 297 0 251-188 377-565 377-145 0-255-26-331-80S102 283 102 186c0-141 80-231 240-270-64-31-96-83-96-154 0-75 44-139 133-192-109-41-191-166-191-309zm406 221c149 0 223-77 223-230 0-159-75-239-225-239s-225 81-225 242c0 151 76 227 227 227zm346 649c0-146-78-149-248-149H504c-153 0-230 66-230 198 0 116 90 174 271 174 263 0 395-74 395-223" id="bq"/><path fill="#de5f85" d="M137-547c0-322 136-571 430-571 137 0 245 53 322 160h12c-24-215-7-376-12-598h182V0H924l-27-147h-8C814-36 706 20 567 20c-294 0-430-246-430-567zm463 416c241 0 288-157 289-416 0-151-23-259-69-323s-121-97-222-97c-181 0-272 141-272 422 0 276 91 414 274 414" id="br"/><g id="R"><use transform="matrix(0.0087890625,0,0,0.0087890625,0,0)" xlink:href="#aW"/><use transform="matrix(0.0087890625,0,0,0.0087890625,10.8017578125,0)" xlink:href="#bh"/><use transform="matrix(0.0087890625,0,0,0.0087890625,21.603515625,0)" xlink:href="#bq"/><use transform="matrix(0.0087890625,0,0,0.0087890625,32.4052734375,0)" xlink:href="#ay"/><use transform="matrix(0.0087890625,0,0,0.0087890625,43.20703125,0)" xlink:href="#aY"/><use transform="matrix(0.0087890625,0,0,0.0087890625,54.0087890625,0)" xlink:href="#at"/><use transform="matrix(0.0087890625,0,0,0.0087890625,64.810546875,0)" xlink:href="#aw"/><use transform="matrix(0.0087890625,0,0,0.0087890625,75.6123046875,0)" xlink:href="#br"/><use transform="matrix(0.0087890625,0,0,0.0087890625,86.4140625,0)" xlink:href="#as"/><use transform="matrix(0.0087890625,0,0,0.0087890625,97.2158203125,0)" xlink:href="#at"/><use transform="matrix(0.0087890625,0,0,0.0087890625,108.017578125,0)" xlink:href="#as"/><use transform="matrix(0.0087890625,0,0,0.0087890625,118.8193359375,0)" xlink:href="#aY"/><use transform="matrix(0.0087890625,0,0,0.0087890625,129.62109375,0)" xlink:href="#ay"/><use transform="matrix(0.0087890625,0,0,0.0087890625,140.4228515625,0)" xlink:href="#at"/><use transform="matrix(0.0087890625,0,0,0.0087890625,151.224609375,0)" xlink:href="#aY"/></g><path d="M33 0v-248h34V0H33" id="bs"/><g id="S"><use transform="matrix(0.05,0,0,0.05,0,0)" xlink:href="#bs"/><use transform="matrix(0.05,0,0,0.05,5,0)" xlink:href="#aJ"/><use transform="matrix(0.05,0,0,0.05,15,0)" xlink:href="#aS"/><use transform="matrix(0.05,0,0,0.05,25,0)" xlink:href="#aH"/><use transform="matrix(0.05,0,0,0.05,35,0)" xlink:href="#aD"/><use transform="matrix(0.05,0,0,0.05,44,0)" xlink:href="#aE"/></g><g id="T"><use transform="matrix(0.05,0,0,0.05,0,0)" xlink:href="#aC"/><use transform="matrix(0.05,0,0,0.05,3.95,0)" xlink:href="#aJ"/><use transform="matrix(0.05,0,0,0.05,13.949999999999998,0)" xlink:href="#aE"/><use transform="matrix(0.05,0,0,0.05,18.95,0)" xlink:href="#aI"/></g><g id="U"><use transform="matrix(0.05,0,0,0.05,0,0)" xlink:href="#aR"/><use transform="matrix(0.05,0,0,0.05,10,0)" xlink:href="#aP"/><use transform="matrix(0.05,0,0,0.05,20,0)" xlink:href="#aE"/><use transform="matrix(0.05,0,0,0.05,25,0)" xlink:href="#aP"/><use transform="matrix(0.05,0,0,0.05,35,0)" xlink:href="#bn"/><use transform="matrix(0.05,0,0,0.05,45,0)" xlink:href="#aP"/><use transform="matrix(0.05,0,0,0.05,55,0)" xlink:href="#aD"/><use transform="matrix(0.05,0,0,0.05,64,0)" xlink:href="#aH"/></g><path d="M232-93c-1 65-40 97-104 97C67 4 28-28 28-90v-158h33c8 89-33 224 67 224 102 0 64-133 71-224h33v155" id="bt"/><g id="V"><use transform="matrix(0.05,0,0,0.05,0,0)" xlink:href="#bt"/><use transform="matrix(0.05,0,0,0.05,12.950000000000001,0)" xlink:href="#aU"/><use transform="matrix(0.05,0,0,0.05,22.950000000000003,0)" xlink:href="#aR"/><use transform="matrix(0.05,0,0,0.05,32.95,0)" xlink:href="#aP"/><use transform="matrix(0.05,0,0,0.05,42.95,0)" xlink:href="#aE"/><use transform="matrix(0.05,0,0,0.05,47.95,0)" xlink:href="#aH"/></g><g id="W"><use transform="matrix(0.05,0,0,0.05,0,0)" xlink:href="#aR"/><use transform="matrix(0.05,0,0,0.05,10,0)" xlink:href="#aP"/><use transform="matrix(0.05,0,0,0.05,20,0)" xlink:href="#aE"/><use transform="matrix(0.05,0,0,0.05,25,0)" xlink:href="#aP"/><use transform="matrix(0.05,0,0,0.05,35,0)" xlink:href="#bn"/><use transform="matrix(0.05,0,0,0.05,45,0)" xlink:href="#aP"/><use transform="matrix(0.05,0,0,0.05,55,0)" xlink:href="#aD"/><use transform="matrix(0.05,0,0,0.05,64,0)" xlink:href="#aH"/></g><path d="M206 0h-36l-40-164L89 0H53L-1-190h32L70-26l43-164h34l41 164 42-164h31" id="bu"/><g id="X"><use transform="matrix(0.05,0,0,0.05,0,0)" xlink:href="#aN"/><use transform="matrix(0.05,0,0,0.05,9,0)" xlink:href="#aC"/><use transform="matrix(0.05,0,0,0.05,12.949999999999998,0)" xlink:href="#aH"/><use transform="matrix(0.05,0,0,0.05,22.95,0)" xlink:href="#bu"/><use transform="matrix(0.05,0,0,0.05,35.9,0)" xlink:href="#aD"/></g><path fill="#de5f85" d="M1092-551c0 322-136 571-430 571-138 0-245-53-322-159h-12c24 220 7 402 12 631H158v-1590h147l27 148h8c73-112 181-168 322-168 294 0 430 246 430 567zM629-967c-241 0-288 156-289 416 0 151 24 259 70 323s120 97 221 97c181 0 272-141 272-422 0-276-91-414-274-414" id="bv"/><g id="Y"><use transform="matrix(0.0087890625,0,0,0.0087890625,0,0)" xlink:href="#bo"/><use transform="matrix(0.0087890625,0,0,0.0087890625,10.8017578125,0)" xlink:href="#bv"/><use transform="matrix(0.0087890625,0,0,0.0087890625,21.603515625,0)" xlink:href="#br"/><use transform="matrix(0.0087890625,0,0,0.0087890625,32.4052734375,0)" xlink:href="#as"/><use transform="matrix(0.0087890625,0,0,0.0087890625,43.20703125,0)" xlink:href="#at"/><use transform="matrix(0.0087890625,0,0,0.0087890625,54.0087890625,0)" xlink:href="#ay"/><use transform="matrix(0.0087890625,0,0,0.0087890625,64.810546875,0)" xlink:href="#aw"/><use transform="matrix(0.0087890625,0,0,0.0087890625,75.6123046875,0)" xlink:href="#aV"/><use transform="matrix(0.0087890625,0,0,0.0087890625,86.4140625,0)" xlink:href="#aW"/><use transform="matrix(0.0087890625,0,0,0.0087890625,97.2158203125,0)" xlink:href="#aX"/><use transform="matrix(0.0087890625,0,0,0.0087890625,108.017578125,0)" xlink:href="#ay"/><use transform="matrix(0.0087890625,0,0,0.0087890625,118.8193359375,0)" xlink:href="#aY"/></g><g id="Z"><use transform="matrix(0.05,0,0,0.05,0,0)" xlink:href="#aS"/><use transform="matrix(0.05,0,0,0.05,10,0)" xlink:href="#aG"/><use transform="matrix(0.05,0,0,0.05,13.949999999999998,0)" xlink:href="#aI"/><use transform="matrix(0.05,0,0,0.05,23.95,0)" xlink:href="#bn"/><use transform="matrix(0.05,0,0,0.05,33.95,0)" xlink:href="#aP"/><use transform="matrix(0.05,0,0,0.05,43.95,0)" xlink:href="#aG"/></g><g id="aa"><use transform="matrix(0.05,0,0,0.05,0,0)" xlink:href="#aP"/><use transform="matrix(0.05,0,0,0.05,10,0)" xlink:href="#aE"/><use transform="matrix(0.05,0,0,0.05,15,0)" xlink:href="#aE"/><use transform="matrix(0.05,0,0,0.05,20,0)" xlink:href="#aL"/><use transform="matrix(0.05,0,0,0.05,25.950000000000003,0)" xlink:href="#aC"/><use transform="matrix(0.05,0,0,0.05,29.899999999999995,0)" xlink:href="#bn"/><use transform="matrix(0.05,0,0,0.05,39.9,0)" xlink:href="#bb"/><use transform="matrix(0.05,0,0,0.05,49.9,0)" xlink:href="#aE"/><use transform="matrix(0.05,0,0,0.05,54.900000000000006,0)" xlink:href="#aH"/><use transform="matrix(0.05,0,0,0.05,64.9,0)" xlink:href="#aD"/></g><g id="ab"><use transform="matrix(0.05,0,0,0.05,0,0)" xlink:href="#aI"/><use transform="matrix(0.05,0,0,0.05,10,0)" xlink:href="#aF"/></g><g id="ac"><use transform="matrix(0.05,0,0,0.05,0,0)" xlink:href="#aG"/><use transform="matrix(0.05,0,0,0.05,3.95,0)" xlink:href="#aI"/><use transform="matrix(0.05,0,0,0.05,13.949999999999998,0)" xlink:href="#aQ"/><use transform="matrix(0.05,0,0,0.05,22.95,0)" xlink:href="#aP"/><use transform="matrix(0.05,0,0,0.05,32.95,0)" xlink:href="#aG"/></g><path d="M30-248c118-7 216 8 213 122C240-48 200 0 122 0H30v-248zM63-27c89 8 146-16 146-99s-60-101-146-95v194" id="bw"/><path d="M63-220v92h138v28H63V0H30v-248h175v28H63" id="bx"/><g id="ad"><use transform="matrix(0.05,0,0,0.05,0,0)" xlink:href="#bm"/><use transform="matrix(0.05,0,0,0.05,12.950000000000001,0)" xlink:href="#aH"/><use transform="matrix(0.05,0,0,0.05,22.950000000000003,0)" xlink:href="#aE"/><use transform="matrix(0.05,0,0,0.05,27.950000000000003,0)" xlink:href="#aZ"/><use transform="matrix(0.05,0,0,0.05,40.900000000000006,0)" xlink:href="#bw"/><use transform="matrix(0.05,0,0,0.05,53.85,0)" xlink:href="#bx"/></g><g id="ae"><use transform="matrix(0.05,0,0,0.05,0,0)" xlink:href="#aF"/><use transform="matrix(0.05,0,0,0.05,5,0)" xlink:href="#aC"/><use transform="matrix(0.05,0,0,0.05,8.95,0)" xlink:href="#aG"/><use transform="matrix(0.05,0,0,0.05,12.899999999999999,0)" xlink:href="#aH"/><use transform="matrix(0.05,0,0,0.05,22.9,0)" xlink:href="#aD"/></g><g id="af"><use transform="matrix(0.0087890625,0,0,0.0087890625,0,0)" xlink:href="#bv"/><use transform="matrix(0.0087890625,0,0,0.0087890625,10.8017578125,0)" xlink:href="#bo"/><use transform="matrix(0.0087890625,0,0,0.0087890625,21.603515625,0)" xlink:href="#bp"/><use transform="matrix(0.0087890625,0,0,0.0087890625,32.4052734375,0)" xlink:href="#aX"/><use transform="matrix(0.0087890625,0,0,0.0087890625,43.20703125,0)" xlink:href="#aW"/><use transform="matrix(0.0087890625,0,0,0.0087890625,54.0087890625,0)" xlink:href="#aY"/><use transform="matrix(0.0087890625,0,0,0.0087890625,64.810546875,0)" xlink:href="#av"/><use transform="matrix(0.0087890625,0,0,0.0087890625,75.6123046875,0)" xlink:href="#aw"/><use transform="matrix(0.0087890625,0,0,0.0087890625,86.4140625,0)" xlink:href="#br"/><use transform="matrix(0.0087890625,0,0,0.0087890625,97.2158203125,0)" xlink:href="#as"/><use transform="matrix(0.0087890625,0,0,0.0087890625,108.017578125,0)" xlink:href="#at"/><use transform="matrix(0.0087890625,0,0,0.0087890625,118.8193359375,0)" xlink:href="#as"/><use transform="matrix(0.0087890625,0,0,0.0087890625,129.62109375,0)" xlink:href="#aY"/><use transform="matrix(0.0087890625,0,0,0.0087890625,140.4228515625,0)" xlink:href="#ay"/><use transform="matrix(0.0087890625,0,0,0.0087890625,151.224609375,0)" xlink:href="#at"/><use transform="matrix(0.0087890625,0,0,0.0087890625,162.0263671875,0)" xlink:href="#aY"/></g><g id="ag"><use transform="matrix(0.05,0,0,0.05,0,0)" xlink:href="#bx"/><use transform="matrix(0.05,0,0,0.05,10.950000000000001,0)" xlink:href="#aG"/><use transform="matrix(0.05,0,0,0.05,14.9,0)" xlink:href="#aP"/><use transform="matrix(0.05,0,0,0.05,24.900000000000002,0)" xlink:href="#aS"/></g><g id="ah"><use transform="matrix(0.05,0,0,0.05,0,0)" xlink:href="#aP"/><use transform="matrix(0.05,0,0,0.05,10,0)" xlink:href="#aD"/></g><g id="ai"><use transform="matrix(0.05,0,0,0.05,0,0)" xlink:href="#aU"/><use transform="matrix(0.05,0,0,0.05,10,0)" xlink:href="#bb"/><use transform="matrix(0.05,0,0,0.05,20,0)" xlink:href="#bn"/><use transform="matrix(0.05,0,0,0.05,30,0)" xlink:href="#aG"/><use transform="matrix(0.05,0,0,0.05,33.95,0)" xlink:href="#aC"/><use transform="matrix(0.05,0,0,0.05,37.900000000000006,0)" xlink:href="#aD"/><use transform="matrix(0.05,0,0,0.05,46.900000000000006,0)" xlink:href="#aK"/><use transform="matrix(0.05,0,0,0.05,56.900000000000006,0)" xlink:href="#aH"/><use transform="matrix(0.05,0,0,0.05,66.9,0)" xlink:href="#aR"/></g><g id="aj"><use transform="matrix(0.05,0,0,0.05,0,0)" xlink:href="#aO"/><use transform="matrix(0.05,0,0,0.05,14.950000000000001,0)" xlink:href="#aI"/><use transform="matrix(0.05,0,0,0.05,24.950000000000003,0)" xlink:href="#aN"/><use transform="matrix(0.05,0,0,0.05,33.95,0)" xlink:href="#aH"/></g><g id="ak"><use transform="matrix(0.05,0,0,0.05,0,0)" xlink:href="#aR"/><use transform="matrix(0.05,0,0,0.05,10,0)" xlink:href="#aC"/><use transform="matrix(0.05,0,0,0.05,13.949999999999998,0)" xlink:href="#aL"/><use transform="matrix(0.05,0,0,0.05,19.9,0)" xlink:href="#aH"/><use transform="matrix(0.05,0,0,0.05,29.899999999999995,0)" xlink:href="#aQ"/><use transform="matrix(0.05,0,0,0.05,38.9,0)" xlink:href="#aE"/><use transform="matrix(0.05,0,0,0.05,43.9,0)" xlink:href="#aI"/><use transform="matrix(0.05,0,0,0.05,53.900000000000006,0)" xlink:href="#aL"/><use transform="matrix(0.05,0,0,0.05,59.85,0)" xlink:href="#ba"/></g><g id="al"><use transform="matrix(0.05,0,0,0.05,0,0)" xlink:href="#aE"/><use transform="matrix(0.05,0,0,0.05,5,0)" xlink:href="#aI"/></g><g id="am"><use transform="matrix(0.05,0,0,0.05,0,0)" xlink:href="#aU"/><use transform="matrix(0.05,0,0,0.05,10,0)" xlink:href="#bb"/><use transform="matrix(0.05,0,0,0.05,20,0)" xlink:href="#bn"/><use transform="matrix(0.05,0,0,0.05,30,0)" xlink:href="#aG"/><use transform="matrix(0.05,0,0,0.05,33.95,0)" xlink:href="#aC"/><use transform="matrix(0.05,0,0,0.05,37.900000000000006,0)" xlink:href="#aQ"/></g><g id="an"><use transform="matrix(0.05,0,0,0.05,0,0)" xlink:href="#aR"/><use transform="matrix(0.05,0,0,0.05,10,0)" xlink:href="#aC"/><use transform="matrix(0.05,0,0,0.05,13.949999999999998,0)" xlink:href="#aL"/><use transform="matrix(0.05,0,0,0.05,19.9,0)" xlink:href="#aH"/><use transform="matrix(0.05,0,0,0.05,29.899999999999995,0)" xlink:href="#aQ"/><use transform="matrix(0.05,0,0,0.05,38.9,0)" xlink:href="#aE"/><use transform="matrix(0.05,0,0,0.05,43.9,0)" xlink:href="#aI"/><use transform="matrix(0.05,0,0,0.05,53.900000000000006,0)" xlink:href="#aL"/><use transform="matrix(0.05,0,0,0.05,59.85,0)" xlink:href="#ba"/></g><path fill="#de5f85" d="M498 0L82-1098h188l240 652c57 154 90 262 100 325h6c67-256 244-708 340-977h189L729 0H498" id="by"/><g id="ao"><use transform="matrix(0.0087890625,0,0,0.0087890625,0,0)" xlink:href="#as"/><use transform="matrix(0.0087890625,0,0,0.0087890625,10.8017578125,0)" xlink:href="#ax"/><use transform="matrix(0.0087890625,0,0,0.0087890625,21.603515625,0)" xlink:href="#au"/><use transform="matrix(0.0087890625,0,0,0.0087890625,32.4052734375,0)" xlink:href="#av"/><use transform="matrix(0.0087890625,0,0,0.0087890625,43.20703125,0)" xlink:href="#aW"/><use transform="matrix(0.0087890625,0,0,0.0087890625,54.0087890625,0)" xlink:href="#by"/><use transform="matrix(0.0087890625,0,0,0.0087890625,64.810546875,0)" xlink:href="#ay"/><use transform="matrix(0.0087890625,0,0,0.0087890625,75.6123046875,0)" xlink:href="#aw"/><use transform="matrix(0.0087890625,0,0,0.0087890625,86.4140625,0)" xlink:href="#br"/><use transform="matrix(0.0087890625,0,0,0.0087890625,97.2158203125,0)" xlink:href="#as"/><use transform="matrix(0.0087890625,0,0,0.0087890625,108.017578125,0)" xlink:href="#at"/><use transform="matrix(0.0087890625,0,0,0.0087890625,118.8193359375,0)" xlink:href="#as"/><use transform="matrix(0.0087890625,0,0,0.0087890625,129.62109375,0)" xlink:href="#aY"/><use transform="matrix(0.0087890625,0,0,0.0087890625,140.4228515625,0)" xlink:href="#ay"/><use transform="matrix(0.0087890625,0,0,0.0087890625,151.224609375,0)" xlink:href="#at"/><use transform="matrix(0.0087890625,0,0,0.0087890625,162.0263671875,0)" xlink:href="#aY"/></g><g id="ap"><use transform="matrix(0.05,0,0,0.05,0,0)" xlink:href="#bb"/><use transform="matrix(0.05,0,0,0.05,10,0)" xlink:href="#aJ"/><use transform="matrix(0.05,0,0,0.05,20,0)" xlink:href="#aU"/><use transform="matrix(0.05,0,0,0.05,30,0)" xlink:href="#bb"/><use transform="matrix(0.05,0,0,0.05,40,0)" xlink:href="#bn"/><use transform="matrix(0.05,0,0,0.05,50,0)" xlink:href="#aG"/><use transform="matrix(0.05,0,0,0.05,53.95,0)" xlink:href="#aC"/><use transform="matrix(0.05,0,0,0.05,57.900000000000006,0)" xlink:href="#aD"/><use transform="matrix(0.05,0,0,0.05,66.9,0)" xlink:href="#aK"/><use transform="matrix(0.05,0,0,0.05,76.9,0)" xlink:href="#aH"/><use transform="matrix(0.05,0,0,0.05,86.9,0)" xlink:href="#aR"/></g><g id="aq"><use transform="matrix(0.05,0,0,0.05,0,0)" xlink:href="#aP"/><use transform="matrix(0.05,0,0,0.05,10,0)" xlink:href="#aL"/><use transform="matrix(0.05,0,0,0.05,15.949999999999998,0)" xlink:href="#aQ"/><use transform="matrix(0.05,0,0,0.05,24.95,0)" xlink:href="#aK"/><use transform="matrix(0.05,0,0,0.05,34.95,0)" xlink:href="#aC"/><use transform="matrix(0.05,0,0,0.05,38.900000000000006,0)" xlink:href="#aN"/><use transform="matrix(0.05,0,0,0.05,47.900000000000006,0)" xlink:href="#aH"/></g></defs></g></svg>